<?xml version="1.0" encoding="UTF-8" standalone="no"?>
<!-- Created with Inkscape (http://www.inkscape.org/) -->

<svg
   xmlns:dc="http://purl.org/dc/elements/1.1/"
   xmlns:cc="http://creativecommons.org/ns#"
   xmlns:rdf="http://www.w3.org/1999/02/22-rdf-syntax-ns#"
   xmlns:svg="http://www.w3.org/2000/svg"
   xmlns="http://www.w3.org/2000/svg"
   xmlns:sodipodi="http://sodipodi.sourceforge.net/DTD/sodipodi-0.dtd"
   xmlns:inkscape="http://www.inkscape.org/namespaces/inkscape"
   width="210mm"
   height="297mm"
   viewBox="0 0 210 297"
   version="1.1"
   id="svg8"
   inkscape:version="0.92.2 (5c3e80d, 2017-08-06)"
   sodipodi:docname="continentalito.svg">
  <defs
     id="defs2" />
  <sodipodi:namedview
     id="base"
     pagecolor="#ffffff"
     bordercolor="#666666"
     borderopacity="1.0"
     inkscape:pageopacity="0.0"
     inkscape:pageshadow="2"
     inkscape:zoom="0.5"
     inkscape:cx="185.07919"
     inkscape:cy="871.74166"
     inkscape:document-units="mm"
     inkscape:current-layer="layer1"
     showgrid="false"
     showguides="true"
     inkscape:guide-bbox="true"
     inkscape:window-width="1280"
     inkscape:window-height="737"
     inkscape:window-x="-8"
     inkscape:window-y="-8"
     inkscape:window-maximized="1">
    <sodipodi:guide
       position="89.202379,181.42858"
       orientation="1,0"
       id="guide821"
       inkscape:locked="false" />
  </sodipodi:namedview>
  <metadata
     id="metadata5">
    <rdf:RDF>
      <cc:Work
         rdf:about="">
        <dc:format>image/svg+xml</dc:format>
        <dc:type
           rdf:resource="http://purl.org/dc/dcmitype/StillImage" />
        <dc:title></dc:title>
      </cc:Work>
    </rdf:RDF>
  </metadata>
  <g
     inkscape:label="Capa 1"
     inkscape:groupmode="layer"
     id="layer1">
    <g
       id="g937"
       transform="translate(-22.754167,3.175)">
      <path
         sodipodi:nodetypes="cccccccc"
         inkscape:connector-curvature="0"
         id="path889"
         d="m -108.77579,0.13731111 c -19.95797,0.02365 -37.42688,13.41222589 -42.63719,32.67810589 -15.68174,1.51783 -27.65133,14.68912 -27.66653,30.44414 -8e-5,16.9089 13.70732,30.6163 30.61622,30.61622 34.79086,-1.15559 55.631171,0.39014 80.729951,-1.51206 16.69993,-8e-5 30.23787,-13.53802 30.23795,-30.23794 -0.0198,-16.15094 -12.7286,-29.43519 -28.86283,-30.16974 -5.50758,-18.84681 -22.78251,-31.80527189 -42.417571,-31.81872589 z"
         style="fill:#9dd7f6;fill-opacity:1;stroke:none;stroke-width:1;stroke-miterlimit:4;stroke-dasharray:none;stroke-opacity:1" />
      <path
         sodipodi:nodetypes="ssccss"
         inkscape:connector-curvature="0"
         id="path899"
         d="m -114.60246,9.9649471 c -6.04761,0 -11.65464,2.6504399 -16.46101,8.4852699 -11.08415,13.45595 -5.12165,17.07647 -5.12165,17.07647 4.63952,0.29436 3.43959,-2.24895 9.4875,-13.0886 6.68073,-7.1343 10.4317,-4.87596 13.6067,-6.04769 2.50739,-0.92535 4.53608,-6.4254499 -1.51154,-6.4254499 z"
         style="fill:#ffffff;stroke:none;stroke-width:0.26458332px;stroke-linecap:butt;stroke-linejoin:miter;stroke-opacity:1" />
      <circle
         r="6.0854163"
         cy="54.906265"
         cx="-90.222923"
         id="path902"
         style="fill:#ffffff;fill-opacity:1;stroke:none;stroke-width:0.37174219;stroke-miterlimit:4;stroke-dasharray:none;stroke-opacity:1" />
      <circle
         r="6.0854163"
         cy="54.641678"
         cx="-67.204155"
         id="path902-0"
         style="fill:#ffffff;fill-opacity:1;stroke:none;stroke-width:0.37174219;stroke-miterlimit:4;stroke-dasharray:none;stroke-opacity:1" />
      <path
         sodipodi:nodetypes="cccc"
         inkscape:connector-curvature="0"
         id="ellipse927"
         d="m -97.566654,68.929127 c 1.731198,9.188352 10.057811,15.871398 19.779154,15.875 9.717833,-0.0079 18.039281,-6.689962 19.769851,-15.875 -13.183002,7.063291 -26.366003,8.433515 -39.549005,0 z"
         style="fill:#ffffff;fill-opacity:1;stroke:none;stroke-width:1.00738084;stroke-miterlimit:4;stroke-dasharray:none;stroke-opacity:1" />
    </g>
  </g>
</svg>
